{"title":"Party Monster [2003] x264","uid":12127036,"size":691996384,"categoryP":"video","categoryS":"movies","magnet":"?xt=urn:btih:79af000849e91ee2d4a76a9ed8373bfeecf7f4c7&amp;dn=Party+Monster+%5B2003%5D+x264&amp;tr=udp%3A%2F%2Ftracker.openbittorrent.com%3A80&amp;tr=udp%3A%2F%2Fopen.demonii.com%3A1337&amp;tr=udp%3A%2F%2Ftracker.coppersurfer.tk%3A6969&amp;tr=udp%3A%2F%2Fexodus.desync.com%3A6969","seeders":0,"leechers":0,"uploader":null,"files":1,"time":1436944726,"description":"Format : MPEG-4\nFormat profile : Base Media / Version 2\nCodec ID : mp42\nFile size : 660 MiB\nDuration : 1h 38mn\nOverall bit rate mode : Variable\nOverall bit rate : 935 Kbps\n\nVideo\nID : 1\nFormat : AVC\nFormat/Info : Advanced Video Codec\nFormat profile : High@L3\nFormat settings, CABAC : Yes\nFormat settings, ReFrames : 4 frames\nCodec ID : avc1\nCodec ID/Info : Advanced Video Coding\nDuration : 1h 38mn\nBit rate : 800 Kbps\nWidth : 720 pixels\nHeight : 480 pixels\nDisplay aspect ratio : 16:9\nOriginal display aspect rat : 16:9\nFrame rate mode : Variable\nFrame rate : 29.970 fps\nMinimum frame rate : 9.990 fps\nMaximum frame rate : 29.970 fps\nStandard : NTSC\nColor space : YUV\nChroma subsampling : 4:2:0\nBit depth : 8 bits\nScan type : Progressive\nBits/(Pixel*Frame) : 0.077\nStream size : 565 MiB (86%)\nWriting library : x264 core 142 r2479 dd79a61\nEncoding settings : cabac=1 / ref=3 / deblock=1:0:0 / analyse=0x3:0x113 / me=hex / subme=7 / psy=1 / psy_rd=1.00:0.00 / mixed_ref=1 / me_range=16 / chroma_me=1 / trellis=1 / 8x8dct=1 / cqm=0 / deadzone=21,11 / fast_pskip=1 / chroma_qp_offset=-2 / threads=6 / lookahead_threads=1 / sliced_threads=0 / nr=0 / decimate=1 / interlaced=0 / bluray_compat=0 / constrained_intra=0 / bframes=3 / b_pyramid=2 / b_adapt=1 / b_bias=0 / direct=1 / weightb=1 / open_gop=0 / weightp=2 / keyint=300 / keyint_min=30 / scenecut=40 / intra_refresh=0 / rc_lookahead=40 / rc=2pass / mbtree=1 / bitrate=800 / ratetol=1.0 / qcomp=0.60 / qpmin=0 / qpmax=69 / qpstep=4 / cplxblur=20.0 / qblur=0.5 / ip_ratio=1.40 / aq=1:1.00\nEncoded date : UTC 2036-02-06 06:28:16\nTagged date : UTC 2036-02-06 06:28:16\nColor range : Limited\nColor primaries : BT.601 NTSC\nTransfer characteristics : BT.709\nMatrix coefficients : BT.601\n\nAudio\nID : 2\nFormat : AAC\nFormat/Info : Advanced Audio Codec\nFormat profile : LC\nCodec ID : 40\nDuration : 1h 38mn\nBit rate mode : Variable\nBit rate : 128 Kbps\nChannel(s) : 2 channels\nChannel positions : Front: L R\nSampling rate : 48.0 KHz\nCompression mode : Lossy\nStream size : 90.3 MiB (14%)\nTitle : Stereo / Stereo\nLanguage : English\n\nText\nID : 3\nFormat : Timed Text\nMuxing mode : sbtl\nCodec ID : tx3g\nDuration : 1h 38mn\nBit rate mode : Variable\nBit rate : 80 bps\nStream size : 57.8 KiB (0%)\nLanguage : English\n\nMenu\nID : 4\nCodec ID : text\nDuration : 1h 38mn\nLanguage : English\n00:00:00.000 : Chapter 1\n00:03:36.850 : Chapter 2\n00:07:50.603 : Chapter 3\n00:12:22.141 : Chapter 4\n00:16:08.568 : Chapter 5\n00:20:27.093 : Chapter 6\n00:23:06.285 : Chapter 7\n00:27:54.740 : Chapter 8\n00:31:23.815 : Chapter 9\n00:35:52.317 : Chapter 10\n00:40:42.507 : Chapter 11\n00:44:19.824 : Chapter 12\n00:46:46.871 : Chapter 13\n00:53:41.118 : Chapter 14\n00:56:24.648 : Chapter 15\n00:59:20.757 : Chapter 16\n01:04:46.950 : Chapter 17\n01:08:06.916 : Chapter 18\n01:12:32.381 : Chapter 19\n01:16:36.158 : Chapter 20\n01:21:05.961 : Chapter 21\n01:23:40.816 : Chapter 22\n01:27:44.593 : Chapter 23\n01:33:42.884 : Chapter 24\nBit rate mode : VBR","torrent":{"xt":"urn:btih:79af000849e91ee2d4a76a9ed8373bfeecf7f4c7","amp;dn":"Party+Monster+%5B2003%5D+x264","amp;tr":["udp%3A%2F%2Ftracker.openbittorrent.com%3A80","udp%3A%2F%2Fopen.demonii.com%3A1337","udp%3A%2F%2Ftracker.coppersurfer.tk%3A6969","udp%3A%2F%2Fexodus.desync.com%3A6969"],"infoHash":"79af000849e91ee2d4a76a9ed8373bfeecf7f4c7","infoHashBuffer":{"type":"Buffer","data":[121,175,0,8,73,233,30,226,212,167,106,158,216,55,59,254,236,247,244,199]},"announce":[],"urlList":[]}}